<svg xmlns="http://www.w3.org/2000/svg" xmlns:xlink="http://www.w3.org/1999/xlink" version="1.1" width="1000" height="1000" viewBox="0 0 1000 1000" xml:space="preserve">
<desc>Created with Fabric.js 3.5.0</desc>
<defs>
</defs>
<rect x="0" y="0" width="100%" height="100%" fill="#ffffff"/>
<g transform="matrix(23.2592 0 0 23.2592 417.6017 582.3997)" id="398286">
<path style="stroke: none; stroke-width: 4; stroke-dasharray: none; stroke-linecap: butt; stroke-dashoffset: 1; stroke-linejoin: round; stroke-miterlimit: 4; is-custom-font: none; font-file-url: none; fill: rgb(202,202,202); fill-rule: nonzero; opacity: 1;" vector-effect="non-scaling-stroke" transform=" translate(-16, -16)" d="m 0 0 l 0 4 l 0 24 l 0 4 l 32 0 l 0 -4 l 0 -24 l 0 -4 z m 4 4 l 24 0 l 0 24 l -24 0 z" stroke-linecap="round"/>
</g>
<g transform="matrix(24.4423 0 0 24.4423 563.47 436.5313)" id="442286">
<path style="stroke: none; stroke-width: 4; stroke-dasharray: none; stroke-linecap: butt; stroke-dashoffset: 1; stroke-linejoin: round; stroke-miterlimit: 4; is-custom-font: none; font-file-url: none; fill: rgb(202,202,202); fill-rule: nonzero; opacity: 1;" vector-effect="non-scaling-stroke" transform=" translate(-16, -16)" d="m 0 0 l 0 4 l 0 24 l 0 4 l 32 0 l 0 -4 l 0 -24 l 0 -4 z m 4 4 l 24 0 l 0 24 l -24 0 z" stroke-linecap="round"/>
</g>
</svg>